G04*
G04 #@! TF.GenerationSoftware,Altium Limited,Altium Designer,24.10.1 (45)*
G04*
G04 Layer_Color=8388736*
%FSLAX25Y25*%
%MOIN*%
G70*
G04*
G04 #@! TF.SameCoordinates,545B6B6C-97C6-4FAA-9EA4-23BCF6F6AA29*
G04*
G04*
G04 #@! TF.FilePolarity,Negative*
G04*
G01*
G75*
G04:AMPARAMS|DCode=38|XSize=63.12mil|YSize=90.68mil|CornerRadius=17.78mil|HoleSize=0mil|Usage=FLASHONLY|Rotation=0.000|XOffset=0mil|YOffset=0mil|HoleType=Round|Shape=RoundedRectangle|*
%AMROUNDEDRECTD38*
21,1,0.06312,0.05512,0,0,0.0*
21,1,0.02756,0.09068,0,0,0.0*
1,1,0.03556,0.01378,-0.02756*
1,1,0.03556,-0.01378,-0.02756*
1,1,0.03556,-0.01378,0.02756*
1,1,0.03556,0.01378,0.02756*
%
%ADD38ROUNDEDRECTD38*%
%ADD39R,0.10642X0.07493*%
%ADD40R,0.04737X0.04343*%
%ADD41R,0.03261X0.04068*%
%ADD42R,0.04343X0.04737*%
%ADD43R,0.04737X0.05524*%
%ADD44R,0.01981X0.06706*%
%ADD45R,0.06706X0.01981*%
%ADD46R,0.03950X0.04343*%
%ADD47R,0.02769X0.02178*%
%ADD48R,0.01902X0.03910*%
%ADD49R,0.03910X0.01902*%
%ADD50R,0.04343X0.03950*%
G04:AMPARAMS|DCode=51|XSize=47.37mil|YSize=43.43mil|CornerRadius=0mil|HoleSize=0mil|Usage=FLASHONLY|Rotation=45.000|XOffset=0mil|YOffset=0mil|HoleType=Round|Shape=Rectangle|*
%AMROTATEDRECTD51*
4,1,4,-0.00139,-0.03210,-0.03210,-0.00139,0.00139,0.03210,0.03210,0.00139,-0.00139,-0.03210,0.0*
%
%ADD51ROTATEDRECTD51*%

G04:AMPARAMS|DCode=52|XSize=55.24mil|YSize=63.12mil|CornerRadius=0mil|HoleSize=0mil|Usage=FLASHONLY|Rotation=315.000|XOffset=0mil|YOffset=0mil|HoleType=Round|Shape=Rectangle|*
%AMROTATEDRECTD52*
4,1,4,-0.04185,-0.00278,0.00278,0.04185,0.04185,0.00278,-0.00278,-0.04185,-0.04185,-0.00278,0.0*
%
%ADD52ROTATEDRECTD52*%

G04:AMPARAMS|DCode=53|XSize=47.37mil|YSize=43.43mil|CornerRadius=0mil|HoleSize=0mil|Usage=FLASHONLY|Rotation=135.000|XOffset=0mil|YOffset=0mil|HoleType=Round|Shape=Rectangle|*
%AMROTATEDRECTD53*
4,1,4,0.03210,-0.00139,0.00139,-0.03210,-0.03210,0.00139,-0.00139,0.03210,0.03210,-0.00139,0.0*
%
%ADD53ROTATEDRECTD53*%

%ADD54R,0.10642X0.02769*%
%ADD55R,0.10642X0.08674*%
%ADD56R,0.05118X0.02756*%
%ADD57R,0.04737X0.02965*%
%ADD58R,0.02769X0.03950*%
%ADD59O,0.08674X0.12611*%
%ADD60O,0.12611X0.08674*%
%ADD61C,0.08674*%
%ADD62C,0.12611*%
%ADD63C,0.10642*%
%ADD64C,0.04343*%
%ADD65C,0.04331*%
%ADD66C,0.09461*%
%ADD67C,0.03162*%
%ADD68C,0.02769*%
D38*
X80358Y9587D02*
D03*
X62642D02*
D03*
Y45413D02*
D03*
X80358D02*
D03*
D39*
X47500Y102000D02*
D03*
X63248D02*
D03*
X69374Y118000D02*
D03*
X53626D02*
D03*
D40*
X172500Y127157D02*
D03*
Y121843D02*
D03*
X190500Y62315D02*
D03*
Y57000D02*
D03*
X106000Y67343D02*
D03*
Y72658D02*
D03*
X180000Y127157D02*
D03*
Y121843D02*
D03*
X99500Y123158D02*
D03*
Y117842D02*
D03*
X216000Y35185D02*
D03*
Y40500D02*
D03*
X218000Y47842D02*
D03*
Y53158D02*
D03*
D41*
X53380Y82000D02*
D03*
X44620D02*
D03*
X199120Y124000D02*
D03*
X207880D02*
D03*
X198301Y108500D02*
D03*
X207061D02*
D03*
X198120Y93000D02*
D03*
X206880D02*
D03*
X198120Y77500D02*
D03*
X206880D02*
D03*
D42*
X51657Y90500D02*
D03*
X46343D02*
D03*
X130657Y47500D02*
D03*
X125343D02*
D03*
X111158Y100000D02*
D03*
X105842D02*
D03*
X167842Y94500D02*
D03*
X173158D02*
D03*
X120343Y109500D02*
D03*
X125657D02*
D03*
X139685Y47500D02*
D03*
X145000D02*
D03*
X158658D02*
D03*
X153342D02*
D03*
X75000Y54000D02*
D03*
X69685D02*
D03*
X72000Y129000D02*
D03*
X66685D02*
D03*
X203658Y63500D02*
D03*
X198343D02*
D03*
X89157Y108500D02*
D03*
X83842D02*
D03*
D43*
X119063Y117500D02*
D03*
X126937D02*
D03*
X205437Y56000D02*
D03*
X197563D02*
D03*
D44*
X122315Y100882D02*
D03*
X124284D02*
D03*
X126252D02*
D03*
X128220D02*
D03*
X130189D02*
D03*
X132158D02*
D03*
X134126D02*
D03*
X136094D02*
D03*
X138063D02*
D03*
X140032D02*
D03*
X142000D02*
D03*
X143968D02*
D03*
X145937D02*
D03*
X147906D02*
D03*
X149874D02*
D03*
X151842D02*
D03*
Y56000D02*
D03*
X149874D02*
D03*
X147906D02*
D03*
X145937D02*
D03*
X143968D02*
D03*
X142000D02*
D03*
X140032D02*
D03*
X138063D02*
D03*
X136094D02*
D03*
X134126D02*
D03*
X132158D02*
D03*
X130189D02*
D03*
X128220D02*
D03*
X126252D02*
D03*
X124284D02*
D03*
X122315D02*
D03*
D45*
X159520Y93205D02*
D03*
Y91236D02*
D03*
Y89268D02*
D03*
Y87299D02*
D03*
Y85331D02*
D03*
Y83362D02*
D03*
Y81394D02*
D03*
Y79425D02*
D03*
Y77457D02*
D03*
Y75488D02*
D03*
Y73520D02*
D03*
Y71551D02*
D03*
Y69583D02*
D03*
Y67614D02*
D03*
Y65646D02*
D03*
Y63677D02*
D03*
X114638D02*
D03*
Y65646D02*
D03*
Y67614D02*
D03*
Y69583D02*
D03*
Y71551D02*
D03*
Y73520D02*
D03*
Y75488D02*
D03*
Y77457D02*
D03*
Y79425D02*
D03*
Y81394D02*
D03*
Y83362D02*
D03*
Y85331D02*
D03*
Y87299D02*
D03*
Y89268D02*
D03*
Y91236D02*
D03*
Y93205D02*
D03*
D46*
X89000Y53847D02*
D03*
Y47153D02*
D03*
D47*
X159850Y123721D02*
D03*
X166150D02*
D03*
X159850Y126279D02*
D03*
X166150D02*
D03*
Y121161D02*
D03*
X159850D02*
D03*
Y128839D02*
D03*
X166150D02*
D03*
D48*
X196579Y33244D02*
D03*
X198547D02*
D03*
X200516D02*
D03*
X202484D02*
D03*
X204453D02*
D03*
X206421D02*
D03*
Y48756D02*
D03*
X204453D02*
D03*
X202484D02*
D03*
X200516D02*
D03*
X198547D02*
D03*
X196579D02*
D03*
D49*
X209256Y36079D02*
D03*
Y38047D02*
D03*
Y40016D02*
D03*
Y41984D02*
D03*
Y43953D02*
D03*
Y45921D02*
D03*
X193744D02*
D03*
Y43953D02*
D03*
Y41984D02*
D03*
Y40016D02*
D03*
Y38047D02*
D03*
Y36079D02*
D03*
D50*
X200335Y116000D02*
D03*
X207028D02*
D03*
X199835Y100500D02*
D03*
X206528D02*
D03*
X199335Y85000D02*
D03*
X206028D02*
D03*
X126347Y127000D02*
D03*
X119653D02*
D03*
D51*
X98879Y92121D02*
D03*
X95121Y95879D02*
D03*
D52*
X87304Y78071D02*
D03*
X82571Y82804D02*
D03*
X93429Y84196D02*
D03*
X88696Y88929D02*
D03*
D53*
X98258Y76258D02*
D03*
X94500Y72500D02*
D03*
D54*
X33756Y66350D02*
D03*
Y72650D02*
D03*
Y69500D02*
D03*
Y63201D02*
D03*
Y75799D02*
D03*
D55*
Y52177D02*
D03*
Y86823D02*
D03*
X12102Y52177D02*
D03*
Y86823D02*
D03*
D56*
X44618Y74740D02*
D03*
Y71000D02*
D03*
Y67260D02*
D03*
X54500Y74740D02*
D03*
Y71000D02*
D03*
Y67260D02*
D03*
D57*
X92315Y123740D02*
D03*
Y116260D02*
D03*
X81685D02*
D03*
Y120000D02*
D03*
Y123740D02*
D03*
D58*
X42500Y115957D02*
D03*
Y123043D02*
D03*
D59*
X121500Y17000D02*
D03*
X101500D02*
D03*
X131500D02*
D03*
X111500D02*
D03*
X175000Y155000D02*
D03*
X195000D02*
D03*
X165000D02*
D03*
X185000D02*
D03*
D60*
X226000Y88500D02*
D03*
Y108500D02*
D03*
Y78500D02*
D03*
Y118500D02*
D03*
Y98500D02*
D03*
D61*
X156500Y21500D02*
D03*
X166500D02*
D03*
X176500D02*
D03*
X186500D02*
D03*
Y11500D02*
D03*
X176500D02*
D03*
X166500D02*
D03*
X156500D02*
D03*
D62*
X94992Y157000D02*
D03*
X113496D02*
D03*
X132000D02*
D03*
D63*
X82394Y150701D02*
D03*
Y163299D02*
D03*
X144598Y150701D02*
D03*
Y163299D02*
D03*
D64*
X23520Y60839D02*
D03*
Y78161D02*
D03*
D65*
X236221Y23000D02*
D03*
X27559D02*
D03*
Y165354D02*
D03*
X236221D02*
D03*
D66*
X31386Y112110D02*
D03*
Y125890D02*
D03*
D67*
X224000Y53500D02*
D03*
X198500Y28000D02*
D03*
X125500Y41000D02*
D03*
X65500Y67500D02*
D03*
Y74500D02*
D03*
X169500Y57500D02*
D03*
X177500Y54000D02*
D03*
X174000Y57500D02*
D03*
X168000Y52500D02*
D03*
X184000Y40000D02*
D03*
X187500Y41000D02*
D03*
X212500Y57000D02*
D03*
D68*
X63500Y60500D02*
D03*
X97000Y104500D02*
D03*
X140500Y110500D02*
D03*
X184000Y102500D02*
D03*
X185000Y89000D02*
D03*
X195000Y115000D02*
D03*
X178500Y92000D02*
D03*
X191000Y84000D02*
D03*
X181000Y89500D02*
D03*
X188000Y86500D02*
D03*
X190000Y68500D02*
D03*
X179500Y73000D02*
D03*
X180500Y77500D02*
D03*
M02*
