G04*
G04 #@! TF.GenerationSoftware,Altium Limited,Altium Designer,24.10.1 (45)*
G04*
G04 Layer_Color=32768*
%FSLAX25Y25*%
%MOIN*%
G70*
G04*
G04 #@! TF.SameCoordinates,545B6B6C-97C6-4FAA-9EA4-23BCF6F6AA29*
G04*
G04*
G04 #@! TF.FilePolarity,Positive*
G04*
G01*
G75*
%ADD10C,0.00500*%
%ADD11C,0.00787*%
%ADD12C,0.00394*%
%ADD83C,0.00197*%
D10*
X110701Y52063D02*
Y104819D01*
Y52063D02*
X163457D01*
Y104819D01*
X110701D02*
X163457D01*
D11*
X69000Y27500D02*
X74000D01*
X71500Y25000D02*
Y30000D01*
X57500Y3000D02*
X85500D01*
Y52000D01*
X57500D02*
X85500D01*
X57500Y3000D02*
Y52000D01*
X139500Y3000D02*
Y31000D01*
X93500Y3000D02*
X139500D01*
X93500D02*
Y21000D01*
Y31000D01*
X130500D01*
X139500D01*
X114500Y17000D02*
X118500D01*
X116500Y15000D02*
Y19000D01*
X212000Y126500D02*
X240000D01*
Y70500D02*
Y126500D01*
X222000Y70500D02*
X240000D01*
X212000D02*
X222000D01*
X212000D02*
Y126500D01*
X226000Y96500D02*
Y100500D01*
X224000Y98500D02*
X228000D01*
X157000Y141000D02*
Y169000D01*
X203000D01*
Y151000D02*
Y169000D01*
Y141000D02*
Y151000D01*
X166000Y141000D02*
X203000D01*
X157000D02*
X166000D01*
X178000Y155000D02*
X182000D01*
X180000Y153000D02*
Y157000D01*
D12*
X53405Y102000D02*
X57342D01*
X55374Y100031D02*
Y103969D01*
X170630Y124500D02*
X174370D01*
X172500Y122630D02*
Y126370D01*
X47032Y82000D02*
X50968D01*
X49000Y80032D02*
Y83969D01*
Y88630D02*
Y92370D01*
X47130Y90500D02*
X50870D01*
X190500Y57787D02*
Y61528D01*
X188630Y59658D02*
X192370D01*
X123000Y115630D02*
Y119370D01*
X121130Y117500D02*
X124870D01*
X128000Y45630D02*
Y49370D01*
X126130Y47500D02*
X129870D01*
X108500Y98130D02*
Y101870D01*
X106630Y100000D02*
X110370D01*
X170500Y92630D02*
Y96370D01*
X168630Y94500D02*
X172370D01*
X104130Y70000D02*
X107870D01*
X106000Y68130D02*
Y71870D01*
X123000Y107630D02*
Y111370D01*
X121130Y109500D02*
X124870D01*
X201532Y124000D02*
X205469D01*
X203500Y122031D02*
Y125969D01*
X142342Y45630D02*
Y49370D01*
X140472Y47500D02*
X144213D01*
X156000Y45630D02*
Y49370D01*
X154130Y47500D02*
X157870D01*
X87130Y50500D02*
X90870D01*
X89000Y48630D02*
Y52370D01*
X72342Y52130D02*
Y55870D01*
X70472Y54000D02*
X74213D01*
X178130Y124500D02*
X181870D01*
X180000Y122630D02*
Y126370D01*
X201500Y54130D02*
Y57870D01*
X199630Y56000D02*
X203370D01*
X97630Y120500D02*
X101370D01*
X99500Y118630D02*
Y122370D01*
X69342Y127130D02*
Y130870D01*
X67472Y129000D02*
X71213D01*
X203681Y114130D02*
Y117870D01*
X201811Y116000D02*
X205551D01*
X200713Y108500D02*
X204650D01*
X202681Y106532D02*
Y110468D01*
X203181Y98630D02*
Y102370D01*
X201311Y100500D02*
X205051D01*
X200532Y93000D02*
X204468D01*
X202500Y91031D02*
Y94968D01*
X202681Y83130D02*
Y86870D01*
X200811Y85000D02*
X204551D01*
X200532Y77500D02*
X204468D01*
X202500Y75532D02*
Y79469D01*
X214130Y37843D02*
X217870D01*
X216000Y35972D02*
Y39713D01*
X201000Y61630D02*
Y65370D01*
X199130Y63500D02*
X202870D01*
X216130Y50500D02*
X219870D01*
X218000Y48630D02*
Y52370D01*
X123000Y125130D02*
Y128870D01*
X121130Y127000D02*
X124870D01*
X95678Y92678D02*
X98322Y95322D01*
X95678Y95322D02*
X98322Y92678D01*
X86608Y84892D02*
X89392Y82108D01*
X86608Y82108D02*
X89392Y84892D01*
X95057Y75701D02*
X97702Y73057D01*
X95057D02*
X97702Y75701D01*
X86500Y106630D02*
Y110370D01*
X84630Y108500D02*
X88370D01*
X18000Y119000D02*
X22921D01*
X18000Y114079D02*
Y119000D01*
X13276D02*
X18000D01*
Y123921D01*
X87000Y118032D02*
Y121968D01*
X85031Y120000D02*
X88968D01*
X61500Y116032D02*
Y119968D01*
X59531Y118000D02*
X63468D01*
X40532Y119500D02*
X44469D01*
X42500Y117138D02*
Y121075D01*
D83*
X41374Y95110D02*
Y108890D01*
X69374Y95110D02*
Y108890D01*
X41374D02*
X69374D01*
X41374Y95110D02*
X69374D01*
X175453Y119185D02*
Y129815D01*
X169547Y119185D02*
Y129815D01*
X175453D01*
X169547Y119185D02*
X175453D01*
X55693Y78654D02*
Y85347D01*
X42307Y78654D02*
Y85347D01*
Y78654D02*
X55693D01*
X42307Y85347D02*
X55693D01*
X43685Y87547D02*
X54315D01*
X43685Y93453D02*
X54315D01*
Y87547D02*
Y93453D01*
X43685Y87547D02*
Y93453D01*
X187547Y64972D02*
X193453D01*
X187547Y54343D02*
X193453D01*
Y64972D01*
X187547Y54343D02*
Y64972D01*
X116307Y120650D02*
X129693D01*
X116307Y114350D02*
X129693D01*
X116307D02*
Y120650D01*
X129693Y114350D02*
Y120650D01*
X122685Y44547D02*
X133315D01*
X122685Y50453D02*
X133315D01*
Y44547D02*
Y50453D01*
X122685Y44547D02*
Y50453D01*
X103185Y97047D02*
X113815D01*
X103185Y102953D02*
X113815D01*
Y97047D02*
Y102953D01*
X103185Y97047D02*
Y102953D01*
X165185Y97453D02*
X175815D01*
X165185Y91547D02*
X175815D01*
X165185D02*
Y97453D01*
X175815Y91547D02*
Y97453D01*
X103047Y64685D02*
Y75315D01*
X108953Y64685D02*
Y75315D01*
X103047Y64685D02*
X108953D01*
X103047Y75315D02*
X108953D01*
X117685Y112453D02*
X128315D01*
X117685Y106547D02*
X128315D01*
X117685D02*
Y112453D01*
X128315Y106547D02*
Y112453D01*
X196807Y120653D02*
Y127347D01*
X210193Y120653D02*
Y127347D01*
X196807D02*
X210193D01*
X196807Y120653D02*
X210193D01*
X137028Y50453D02*
X147658D01*
X137028Y44547D02*
X147658D01*
X137028D02*
Y50453D01*
X147658Y44547D02*
Y50453D01*
X150685Y44547D02*
X161315D01*
X150685Y50453D02*
X161315D01*
Y44547D02*
Y50453D01*
X150685Y44547D02*
Y50453D01*
X91756Y44594D02*
Y56406D01*
X86244Y44594D02*
Y56406D01*
X91756D01*
X86244Y44594D02*
X91756D01*
X67028Y51047D02*
X77658D01*
X67028Y56953D02*
X77658D01*
Y51047D02*
Y56953D01*
X67028Y51047D02*
Y56953D01*
X182953Y119185D02*
Y129815D01*
X177047Y119185D02*
Y129815D01*
X182953D01*
X177047Y119185D02*
X182953D01*
X157882Y119095D02*
X168118D01*
X157882D02*
Y130905D01*
X168118D01*
Y119095D02*
Y130905D01*
X191205Y30705D02*
Y51295D01*
X211795D01*
Y30705D02*
Y51295D01*
X191205Y30705D02*
X211795D01*
X194807Y52850D02*
X208193D01*
X194807Y59150D02*
X208193D01*
Y52850D02*
Y59150D01*
X194807Y52850D02*
Y59150D01*
X102453Y115185D02*
Y125815D01*
X96547Y115185D02*
Y125815D01*
X102453D01*
X96547Y115185D02*
X102453D01*
X64028Y126047D02*
X74657D01*
X64028Y131953D02*
X74657D01*
Y126047D02*
Y131953D01*
X64028Y126047D02*
Y131953D01*
X197776Y118756D02*
X209587D01*
X197776Y113244D02*
X209587D01*
X197776D02*
Y118756D01*
X209587Y113244D02*
Y118756D01*
X195988Y105154D02*
Y111846D01*
X209374Y105154D02*
Y111846D01*
X195988D02*
X209374D01*
X195988Y105154D02*
X209374D01*
X197276Y103256D02*
X209087D01*
X197276Y97744D02*
X209087D01*
X197276D02*
Y103256D01*
X209087Y97744D02*
Y103256D01*
X195807Y89653D02*
Y96346D01*
X209193Y89653D02*
Y96346D01*
X195807D02*
X209193D01*
X195807Y89653D02*
X209193D01*
X196776Y87756D02*
X208587D01*
X196776Y82244D02*
X208587D01*
X196776D02*
Y87756D01*
X208587Y82244D02*
Y87756D01*
X195807Y74154D02*
Y80847D01*
X209193Y74154D02*
Y80847D01*
X195807D02*
X209193D01*
X195807Y74154D02*
X209193D01*
X213047Y32528D02*
Y43158D01*
X218953Y32528D02*
Y43158D01*
X213047Y32528D02*
X218953D01*
X213047Y43158D02*
X218953D01*
X195685Y60547D02*
X206315D01*
X195685Y66453D02*
X206315D01*
Y60547D02*
Y66453D01*
X195685Y60547D02*
Y66453D01*
X215047Y45185D02*
Y55815D01*
X220953Y45185D02*
Y55815D01*
X215047Y45185D02*
X220953D01*
X215047Y55815D02*
X220953D01*
X117095Y124244D02*
X128905D01*
X117095Y129756D02*
X128905D01*
Y124244D02*
Y129756D01*
X117095Y124244D02*
Y129756D01*
X91154Y95670D02*
X98670Y88154D01*
X95330Y99846D02*
X102846Y92330D01*
X98670Y88154D02*
X102846Y92330D01*
X91154Y95670D02*
X95330Y99846D01*
X76029Y82108D02*
X89392Y95471D01*
X86608Y71529D02*
X99971Y84892D01*
X76029Y82108D02*
X86608Y71529D01*
X89392Y95471D02*
X99971Y84892D01*
X94709Y68533D02*
X102225Y76050D01*
X90533Y72709D02*
X98049Y80225D01*
X102225Y76050D01*
X90533Y72709D02*
X94709Y68533D01*
X81185Y105547D02*
X91815D01*
X81185Y111453D02*
X91815D01*
Y105547D02*
Y111453D01*
X81185Y105547D02*
Y111453D01*
X18500Y68122D02*
Y70878D01*
X17122Y69500D02*
X19878D01*
X-898Y136323D02*
X36898D01*
X-898Y101677D02*
X36898D01*
Y136323D01*
X-898Y101677D02*
Y136323D01*
X78732Y112913D02*
X95268D01*
X78732Y127087D02*
X95268D01*
Y112913D02*
Y127087D01*
X78732Y112913D02*
Y127087D01*
X47500Y111110D02*
X75500D01*
X47500Y124890D02*
X75500D01*
Y111110D02*
Y124890D01*
X47500Y111110D02*
Y124890D01*
X40138Y113177D02*
Y125823D01*
X44862Y113177D02*
Y125823D01*
X40138Y113177D02*
X44862D01*
X40138Y125823D02*
X44862D01*
M02*
