G04*
G04 #@! TF.GenerationSoftware,Altium Limited,Altium Designer,24.10.1 (45)*
G04*
G04 Layer_Color=16711935*
%FSLAX25Y25*%
%MOIN*%
G70*
G04*
G04 #@! TF.SameCoordinates,545B6B6C-97C6-4FAA-9EA4-23BCF6F6AA29*
G04*
G04*
G04 #@! TF.FilePolarity,Negative*
G04*
G01*
G75*
%ADD59O,0.08674X0.12611*%
%ADD60O,0.12611X0.08674*%
%ADD61C,0.08674*%
%ADD62C,0.12611*%
%ADD63C,0.10642*%
%ADD64C,0.04343*%
%ADD65C,0.04331*%
%ADD66C,0.09461*%
%ADD67C,0.03162*%
%ADD68C,0.02769*%
D59*
X121500Y17000D02*
D03*
X101500D02*
D03*
X131500D02*
D03*
X111500D02*
D03*
X175000Y155000D02*
D03*
X195000D02*
D03*
X165000D02*
D03*
X185000D02*
D03*
D60*
X226000Y88500D02*
D03*
Y108500D02*
D03*
Y78500D02*
D03*
Y118500D02*
D03*
Y98500D02*
D03*
D61*
X156500Y21500D02*
D03*
X166500D02*
D03*
X176500D02*
D03*
X186500D02*
D03*
Y11500D02*
D03*
X176500D02*
D03*
X166500D02*
D03*
X156500D02*
D03*
D62*
X94992Y157000D02*
D03*
X113496D02*
D03*
X132000D02*
D03*
D63*
X82394Y150701D02*
D03*
Y163299D02*
D03*
X144598Y150701D02*
D03*
Y163299D02*
D03*
D64*
X23520Y60839D02*
D03*
Y78161D02*
D03*
D65*
X236221Y23000D02*
D03*
X27559D02*
D03*
Y165354D02*
D03*
X236221D02*
D03*
D66*
X31386Y112110D02*
D03*
Y125890D02*
D03*
D67*
X224000Y53500D02*
D03*
X198500Y28000D02*
D03*
X125500Y41000D02*
D03*
X65500Y67500D02*
D03*
Y74500D02*
D03*
X169500Y57500D02*
D03*
X177500Y54000D02*
D03*
X174000Y57500D02*
D03*
X168000Y52500D02*
D03*
X184000Y40000D02*
D03*
X187500Y41000D02*
D03*
X212500Y57000D02*
D03*
D68*
X63500Y60500D02*
D03*
X97000Y104500D02*
D03*
X140500Y110500D02*
D03*
X184000Y102500D02*
D03*
X185000Y89000D02*
D03*
X195000Y115000D02*
D03*
X178500Y92000D02*
D03*
X191000Y84000D02*
D03*
X181000Y89500D02*
D03*
X188000Y86500D02*
D03*
X190000Y68500D02*
D03*
X179500Y73000D02*
D03*
X180500Y77500D02*
D03*
M02*
