G04*
G04 #@! TF.GenerationSoftware,Altium Limited,Altium Designer,24.10.1 (45)*
G04*
G04 Layer_Color=65535*
%FSLAX25Y25*%
%MOIN*%
G70*
G04*
G04 #@! TF.SameCoordinates,545B6B6C-97C6-4FAA-9EA4-23BCF6F6AA29*
G04*
G04*
G04 #@! TF.FilePolarity,Positive*
G04*
G01*
G75*
%ADD10C,0.00500*%
%ADD11C,0.00787*%
%ADD12C,0.00394*%
%ADD13C,0.00984*%
%ADD14C,0.00591*%
%ADD15R,0.02000X0.00701*%
%ADD16R,0.01862X0.00787*%
G36*
X150752Y6657D02*
X154295D01*
X150752Y10201D01*
Y6657D01*
D02*
G37*
G36*
X85031Y126102D02*
X87000D01*
Y125512D01*
X85819Y124331D01*
X85031D01*
Y126102D01*
D02*
G37*
G36*
X70591Y146312D02*
X45006D01*
Y166808D01*
X70591D01*
Y146312D01*
D02*
G37*
%LPC*%
G36*
X57233Y161932D02*
X52780D01*
Y161578D01*
X53346D01*
Y161508D01*
X53628D01*
Y161437D01*
X53770D01*
Y161366D01*
X53911D01*
Y161296D01*
X54053D01*
Y161225D01*
X54123D01*
Y161083D01*
X54194D01*
Y160872D01*
X54265D01*
Y152602D01*
X54194D01*
Y152320D01*
X54123D01*
Y152178D01*
X54053D01*
Y152108D01*
X53982D01*
Y152037D01*
X53911D01*
Y151966D01*
X53841D01*
Y151895D01*
X53628D01*
Y151825D01*
X53204D01*
Y151754D01*
X52780D01*
Y151401D01*
X57233D01*
Y151754D01*
X56738D01*
Y151825D01*
X56456D01*
Y151895D01*
X56244D01*
Y151966D01*
X56102D01*
Y152037D01*
X56032D01*
Y152108D01*
X55961D01*
Y152178D01*
X55890D01*
Y152249D01*
Y152320D01*
X55819D01*
Y152673D01*
X55749D01*
Y156631D01*
X55819D01*
Y156560D01*
X55890D01*
Y156490D01*
X55961D01*
Y156419D01*
X56032D01*
Y156348D01*
X56102D01*
Y156277D01*
X56173D01*
Y156207D01*
X56244D01*
Y156136D01*
X56314D01*
Y156065D01*
X56385D01*
Y155995D01*
X56456D01*
Y155924D01*
X56526D01*
Y155853D01*
X56597D01*
Y155783D01*
X56668D01*
Y155712D01*
X56738D01*
Y155641D01*
X56809D01*
Y155571D01*
X56880D01*
Y155500D01*
X56950D01*
Y155429D01*
X57021D01*
Y155359D01*
X57092D01*
Y155288D01*
X57162D01*
Y155217D01*
X57233D01*
Y155147D01*
X57304D01*
Y155076D01*
X57374D01*
Y155005D01*
X57445D01*
Y154935D01*
X57516D01*
Y154864D01*
X57586D01*
Y154793D01*
X57657D01*
Y154722D01*
X57728D01*
Y154652D01*
X57798D01*
Y154581D01*
X57869D01*
Y154510D01*
X57940D01*
Y154440D01*
X58011D01*
Y154369D01*
X58081D01*
Y154298D01*
X58152D01*
Y154228D01*
X58223D01*
Y154157D01*
X58293D01*
Y154086D01*
X58364D01*
Y154016D01*
X58435D01*
Y153945D01*
X58505D01*
Y153874D01*
X58576D01*
Y153804D01*
X58647D01*
Y153733D01*
X58717D01*
Y153662D01*
X58788D01*
Y153592D01*
X58859D01*
Y153521D01*
X58929D01*
Y153450D01*
X59000D01*
Y153380D01*
X59071D01*
Y153309D01*
X59141D01*
Y153238D01*
X59212D01*
Y153168D01*
X59283D01*
Y153097D01*
X59353D01*
Y153026D01*
X59424D01*
Y152956D01*
X59495D01*
Y152885D01*
X59565D01*
Y152814D01*
X59636D01*
Y152744D01*
X59707D01*
Y152673D01*
X59777D01*
Y152532D01*
X59848D01*
Y152390D01*
X59919D01*
Y152108D01*
X59848D01*
Y151966D01*
X59777D01*
Y151895D01*
X59707D01*
Y151825D01*
X59565D01*
Y151754D01*
X59141D01*
Y151683D01*
X59071D01*
Y151401D01*
X64018D01*
Y151683D01*
X63947D01*
Y151754D01*
X63523D01*
Y151825D01*
X63311D01*
Y151895D01*
X63099D01*
Y151966D01*
X62887D01*
Y152037D01*
X62746D01*
Y152108D01*
X62605D01*
Y152178D01*
X62534D01*
Y152249D01*
X62392D01*
Y152320D01*
X62251D01*
Y152390D01*
X62181D01*
Y152461D01*
X62110D01*
Y152532D01*
X61968D01*
Y152602D01*
X61898D01*
Y152673D01*
X61827D01*
Y152744D01*
X61756D01*
Y152814D01*
X61615D01*
Y152885D01*
X61544D01*
Y152956D01*
X61474D01*
Y153026D01*
X61403D01*
Y153097D01*
X61332D01*
Y153168D01*
X61262D01*
Y153238D01*
X61191D01*
Y153309D01*
X61120D01*
Y153380D01*
X61050D01*
Y153450D01*
X60979D01*
Y153521D01*
X60908D01*
Y153592D01*
X60838D01*
Y153662D01*
X60767D01*
Y153733D01*
X60696D01*
Y153804D01*
X60626D01*
Y153874D01*
X60555D01*
Y153945D01*
X60484D01*
Y154016D01*
X60414D01*
Y154086D01*
X60343D01*
Y154157D01*
X60272D01*
Y154228D01*
X60202D01*
Y154298D01*
X60131D01*
Y154369D01*
X60060D01*
Y154440D01*
X59990D01*
Y154510D01*
X59919D01*
Y154581D01*
X59848D01*
Y154652D01*
X59777D01*
Y154722D01*
X59707D01*
Y154793D01*
X59636D01*
Y154864D01*
X59565D01*
Y154935D01*
X59495D01*
Y155005D01*
X59424D01*
Y155076D01*
X59353D01*
Y155147D01*
X59283D01*
Y155217D01*
X59212D01*
Y155288D01*
X59141D01*
Y155359D01*
X59071D01*
Y155429D01*
X59000D01*
Y155500D01*
X58929D01*
Y155571D01*
X58859D01*
Y155641D01*
X58788D01*
Y155712D01*
X58717D01*
Y155783D01*
X58647D01*
Y155853D01*
X58576D01*
Y155924D01*
X58505D01*
Y155995D01*
X58435D01*
Y156065D01*
X58364D01*
Y156136D01*
X58293D01*
Y156207D01*
X58223D01*
Y156277D01*
X58152D01*
Y156348D01*
X58081D01*
Y156419D01*
X58011D01*
Y156490D01*
X57940D01*
Y156560D01*
X57869D01*
Y156631D01*
X57798D01*
Y156702D01*
X57728D01*
Y156772D01*
X57657D01*
Y156843D01*
X57586D01*
Y156914D01*
X57516D01*
Y156984D01*
X57445D01*
Y157055D01*
X57374D01*
Y157126D01*
X57304D01*
Y157196D01*
X57233D01*
Y157267D01*
X57304D01*
Y157338D01*
X57374D01*
Y157408D01*
X57445D01*
Y157479D01*
X57516D01*
Y157550D01*
X57586D01*
Y157620D01*
X57657D01*
Y157691D01*
X57728D01*
Y157762D01*
X57798D01*
Y157832D01*
X57869D01*
Y157903D01*
X57940D01*
Y157974D01*
X58011D01*
Y158044D01*
X58081D01*
Y158115D01*
X58152D01*
Y158186D01*
X58223D01*
Y158256D01*
X58293D01*
Y158327D01*
X58364D01*
Y158398D01*
X58435D01*
Y158468D01*
X58505D01*
Y158539D01*
X58576D01*
Y158610D01*
X58647D01*
Y158680D01*
X58717D01*
Y158751D01*
X58788D01*
Y158822D01*
X58859D01*
Y158893D01*
X58929D01*
Y158963D01*
X59000D01*
Y159034D01*
X59071D01*
Y159105D01*
X59141D01*
Y159175D01*
X59212D01*
Y159246D01*
X59283D01*
Y159317D01*
X59353D01*
Y159387D01*
X59424D01*
Y159458D01*
X59495D01*
Y159529D01*
X59565D01*
Y159599D01*
X59636D01*
Y159670D01*
X59707D01*
Y159741D01*
X59777D01*
Y159811D01*
X59848D01*
Y159882D01*
X59919D01*
Y159953D01*
X59990D01*
Y160023D01*
X60060D01*
Y160094D01*
X60131D01*
Y160165D01*
X60202D01*
Y160235D01*
X60272D01*
Y160306D01*
X60343D01*
Y160377D01*
X60414D01*
Y160447D01*
X60484D01*
Y160518D01*
X60626D01*
Y160589D01*
X60696D01*
Y160660D01*
X60767D01*
Y160730D01*
X60838D01*
Y160801D01*
X60908D01*
Y160872D01*
X61050D01*
Y160942D01*
X61120D01*
Y161013D01*
X61191D01*
Y161083D01*
X61332D01*
Y161154D01*
X61474D01*
Y161225D01*
X61544D01*
Y161296D01*
X61686D01*
Y161366D01*
X61827D01*
Y161437D01*
X62039D01*
Y161508D01*
X62392D01*
Y161578D01*
X62675D01*
Y161861D01*
X58859D01*
Y161578D01*
X59283D01*
Y161508D01*
X59495D01*
Y161437D01*
X59636D01*
Y161366D01*
X59707D01*
Y161296D01*
X59777D01*
Y160942D01*
X59707D01*
Y160730D01*
X59636D01*
Y160660D01*
X59565D01*
Y160518D01*
X59495D01*
Y160447D01*
X59424D01*
Y160377D01*
X59353D01*
Y160306D01*
X59283D01*
Y160235D01*
X59212D01*
Y160094D01*
X59141D01*
Y160023D01*
X59071D01*
Y159953D01*
X59000D01*
Y159882D01*
X58929D01*
Y159811D01*
X58859D01*
Y159741D01*
X58788D01*
Y159670D01*
X58717D01*
Y159599D01*
X58647D01*
Y159529D01*
X58576D01*
Y159458D01*
X58505D01*
Y159387D01*
X58435D01*
Y159317D01*
X58364D01*
Y159246D01*
X58293D01*
Y159175D01*
X58223D01*
Y159105D01*
X58152D01*
Y159034D01*
X58081D01*
Y158963D01*
X58011D01*
Y158893D01*
X57940D01*
Y158822D01*
X57869D01*
Y158751D01*
X57798D01*
Y158680D01*
X57728D01*
Y158610D01*
X57657D01*
Y158539D01*
X57586D01*
Y158468D01*
X57516D01*
Y158398D01*
X57445D01*
Y158327D01*
X57374D01*
Y158256D01*
X57233D01*
Y158186D01*
X57162D01*
Y158115D01*
X57092D01*
Y158044D01*
X57021D01*
Y157974D01*
X56950D01*
Y157903D01*
X56880D01*
Y157832D01*
X56809D01*
Y157762D01*
X56738D01*
Y157691D01*
X56668D01*
Y157620D01*
X56597D01*
Y157550D01*
X56526D01*
Y157479D01*
X56456D01*
Y157408D01*
X56385D01*
Y157338D01*
X56314D01*
Y157267D01*
X56173D01*
Y157196D01*
X56102D01*
Y157126D01*
X56032D01*
Y157055D01*
X55961D01*
Y156984D01*
X55890D01*
Y156914D01*
X55819D01*
Y156843D01*
X55749D01*
Y160589D01*
X55819D01*
Y161013D01*
X55890D01*
Y161154D01*
X55961D01*
Y161225D01*
X56032D01*
Y161296D01*
X56102D01*
Y161366D01*
X56173D01*
Y161437D01*
X56385D01*
Y161508D01*
X56668D01*
Y161578D01*
X57233D01*
Y161932D01*
D02*
G37*
G36*
X55325Y164617D02*
X54759D01*
Y164547D01*
X54547D01*
Y164476D01*
X54477D01*
Y164405D01*
X54406D01*
Y164335D01*
X54335D01*
Y164193D01*
X54265D01*
Y164052D01*
X54194D01*
Y163557D01*
X54265D01*
Y163345D01*
X54335D01*
Y163275D01*
X54406D01*
Y163204D01*
X54477D01*
Y163133D01*
X54547D01*
Y163063D01*
X54689D01*
Y162992D01*
X54971D01*
Y162921D01*
X55042D01*
Y162992D01*
X55325D01*
Y163063D01*
X55466D01*
Y163133D01*
X55537D01*
Y163204D01*
X55678D01*
Y163345D01*
X55749D01*
Y163416D01*
X55819D01*
Y163699D01*
X55890D01*
Y163840D01*
X55819D01*
Y163911D01*
Y164123D01*
X55749D01*
Y164264D01*
X55678D01*
Y164335D01*
X55607D01*
Y164405D01*
X55537D01*
Y164476D01*
X55466D01*
Y164547D01*
X55325D01*
Y164617D01*
D02*
G37*
%LPD*%
D10*
X114244Y96551D02*
G03*
X114244Y96551I-394J0D01*
G01*
X114801D02*
G03*
X114801Y96551I-557J0D01*
G01*
X114638D02*
G03*
X114638Y96551I-394J0D01*
G01*
X114801D02*
G03*
X114801Y96551I-557J0D01*
G01*
X115124D02*
G03*
X115124Y96551I-880J0D01*
G01*
X115358D02*
G03*
X115358Y96551I-1114J0D01*
G01*
X124087Y91039D02*
G03*
X124087Y91039I-394J0D01*
G01*
X124967D02*
G03*
X124967Y91039I-880J0D01*
G01*
X124643D02*
G03*
X124643Y91039I-557J0D01*
G01*
X125506D02*
G03*
X125506Y91039I-1419J0D01*
G01*
X125200D02*
G03*
X125200Y91039I-1114J0D01*
G01*
X125757D02*
G03*
X125757Y91039I-1670J0D01*
G01*
X126055D02*
G03*
X126055Y91039I-1969J0D01*
G01*
X126314D02*
G03*
X126314Y91039I-2227J0D01*
G01*
X126382D02*
G03*
X126382Y91039I-2296J0D01*
G01*
X118968Y60331D02*
Y96551D01*
Y60331D02*
X155189D01*
Y96551D01*
X118968D02*
X155189D01*
X159063Y119685D02*
X166937D01*
X159063Y130315D02*
X166937D01*
X193626Y33126D02*
X194787D01*
X193626D02*
Y34287D01*
X209374Y33126D02*
Y34287D01*
X208213Y33126D02*
X209374D01*
X208213Y48874D02*
X209374D01*
Y47713D02*
Y48874D01*
X193626Y47713D02*
Y48874D01*
X194787D01*
X46360Y77161D02*
X52758D01*
X46360Y64839D02*
X52758D01*
D11*
X156720Y120472D02*
G03*
X156720Y120472I-394J0D01*
G01*
X196972Y29189D02*
G03*
X196972Y29189I-394J0D01*
G01*
X40898Y74937D02*
G03*
X40898Y74937I-394J0D01*
G01*
X85228Y124331D02*
G03*
X87000Y126102I0J1772D01*
G01*
X83000Y15000D02*
Y40000D01*
X67000Y14500D02*
X76000D01*
X67000Y40500D02*
X76000D01*
X60000Y15000D02*
Y40000D01*
X96500Y28000D02*
X136500D01*
X100500Y26000D02*
Y28000D01*
Y26000D02*
X132500D01*
Y28000D01*
X136500Y6000D02*
Y28000D01*
X96500Y6000D02*
X136500D01*
X96500D02*
Y28000D01*
X40874Y108500D02*
X70138D01*
X40874Y106626D02*
Y108500D01*
X70138Y103000D02*
Y108500D01*
X40874Y95500D02*
Y97374D01*
X69374Y103000D02*
X70138D01*
X69374D02*
Y108500D01*
Y95500D02*
Y101000D01*
X70138D01*
X40874Y95500D02*
X70138D01*
Y101000D01*
X56949Y100031D02*
Y103969D01*
X54193Y103575D02*
X56949Y102000D01*
X54193Y100031D02*
X56949Y102000D01*
X54193Y100031D02*
Y103575D01*
X56949Y102000D02*
X57342D01*
X53405D02*
X54193D01*
X215000Y73500D02*
Y123500D01*
Y77500D02*
X217000D01*
Y119500D01*
X215000D02*
X217000D01*
X215000Y123500D02*
X237000D01*
Y73500D02*
Y123500D01*
X215000Y73500D02*
X237000D01*
X47425Y80032D02*
Y83969D01*
Y82000D02*
X50181Y80425D01*
X47425Y82000D02*
X50181Y83969D01*
Y80425D02*
Y83969D01*
X46638Y82000D02*
X47425D01*
X50181D02*
X51362D01*
X150752Y6657D02*
X192091D01*
Y26342D01*
X150752D02*
X192091D01*
X150752Y6657D02*
Y26342D01*
X123000Y114252D02*
Y120748D01*
X115913Y114252D02*
Y116220D01*
Y114252D02*
X130087D01*
Y116220D01*
X115913Y118780D02*
Y120748D01*
X130087D01*
Y118780D02*
Y120748D01*
X205075Y122031D02*
Y125969D01*
X202319Y125575D02*
X205075Y124000D01*
X202319Y122031D02*
X205075Y124000D01*
X202319Y122031D02*
Y125575D01*
X205075Y124000D02*
X205862D01*
X201138D02*
X202319D01*
X201500Y52752D02*
Y59248D01*
X208587Y57279D02*
Y59248D01*
X194413D02*
X208587D01*
X194413Y57279D02*
Y59248D01*
X208587Y52752D02*
Y54720D01*
X194413Y52752D02*
X208587D01*
X194413D02*
Y54720D01*
X204256Y106532D02*
Y110468D01*
X201500Y110075D02*
X204256Y108500D01*
X201500Y106532D02*
X204256Y108500D01*
X201500Y106532D02*
Y110075D01*
X204256Y108500D02*
X205043D01*
X200319D02*
X201500D01*
X204075Y91031D02*
Y94968D01*
X201319Y94575D02*
X204075Y93000D01*
X201319Y91031D02*
X204075Y93000D01*
X201319Y91031D02*
Y94575D01*
X204075Y93000D02*
X204862D01*
X200138D02*
X201319D01*
X204075Y75532D02*
Y79469D01*
X201319Y79075D02*
X204075Y77500D01*
X201319Y75532D02*
X204075Y77500D01*
X201319Y75532D02*
Y79075D01*
X204075Y77500D02*
X204862D01*
X200138D02*
X201319D01*
X160000Y144000D02*
X200000D01*
X196000D02*
Y146000D01*
X164000D02*
X196000D01*
X164000Y144000D02*
Y146000D01*
X160000Y144000D02*
Y166000D01*
X200000D01*
Y144000D02*
Y166000D01*
X80819Y169205D02*
Y169992D01*
Y156606D02*
Y157394D01*
Y144008D02*
Y144795D01*
X146173Y169205D02*
Y169992D01*
Y156606D02*
Y157394D01*
Y144008D02*
Y144795D01*
X80819Y144008D02*
X146173D01*
X80819Y169992D02*
X146173D01*
X86330Y91295D02*
X88557Y93522D01*
X89670D01*
X98579Y84614D01*
X86886Y72921D02*
X98579Y84614D01*
X77421Y82386D02*
X86886Y72921D01*
X77421Y82386D02*
X86330Y91295D01*
X36110Y115063D02*
Y122937D01*
Y128842D02*
Y135535D01*
Y102464D02*
Y109158D01*
X-110Y102464D02*
X36110D01*
X-110D02*
Y135535D01*
X36110D01*
X88968Y113898D02*
Y126102D01*
X85031Y113898D02*
Y126102D01*
Y113898D02*
X88968D01*
X85031Y126102D02*
X88968D01*
X85031Y124331D02*
X85228D01*
X59531Y118000D02*
X60319D01*
X63075D02*
X63468D01*
X60319Y116032D02*
Y119575D01*
Y116032D02*
X63075Y118000D01*
X60319Y119575D02*
X63075Y118000D01*
Y116032D02*
Y119968D01*
X76264Y111500D02*
Y117000D01*
X47000Y111500D02*
X76264D01*
X75500Y117000D02*
X76264D01*
X75500Y111500D02*
Y117000D01*
Y119000D02*
Y124500D01*
Y119000D02*
X76264D01*
X47000Y111500D02*
Y113374D01*
X76264Y119000D02*
Y124500D01*
X47000Y122626D02*
Y124500D01*
X76264D01*
X41319Y118713D02*
X43681D01*
X41516Y120681D02*
X42106D01*
X41516D02*
X42500Y118713D01*
X43484Y120681D01*
X42106D02*
X43484D01*
D12*
X89310Y94635D02*
G03*
X89310Y94635I-197J0D01*
G01*
X74351Y83407D02*
X74443Y83315D01*
X74814D01*
Y83685D01*
X74722Y83778D01*
X74814Y83315D02*
X75093Y83036D01*
X75464Y83407D02*
X75649Y83593D01*
X75557Y83500D01*
X75000Y84057D01*
Y83871D01*
X110800Y108287D02*
Y107631D01*
X110931Y107500D01*
X111194D01*
X111325Y107631D01*
Y108287D01*
X111587Y108156D02*
X111718Y108287D01*
X111981D01*
X112112Y108156D01*
Y108025D01*
X111981Y107894D01*
X111849D01*
X111981D01*
X112112Y107762D01*
Y107631D01*
X111981Y107500D01*
X111718D01*
X111587Y107631D01*
X164844Y132394D02*
Y131738D01*
X164975Y131606D01*
X165238D01*
X165369Y131738D01*
Y132394D01*
X166156Y131606D02*
X165631D01*
X166156Y132131D01*
Y132262D01*
X166025Y132394D01*
X165762D01*
X165631Y132262D01*
X185106Y54475D02*
X185762D01*
X185894Y54606D01*
Y54869D01*
X185762Y55000D01*
X185106D01*
X185894Y55262D02*
Y55525D01*
Y55394D01*
X185106D01*
X185238Y55262D01*
X56869Y34262D02*
X56738Y34394D01*
X56475D01*
X56344Y34262D01*
Y34131D01*
X56475Y34000D01*
X56738D01*
X56869Y33869D01*
Y33738D01*
X56738Y33606D01*
X56475D01*
X56344Y33738D01*
X57656Y33606D02*
X57131D01*
X57656Y34131D01*
Y34262D01*
X57525Y34394D01*
X57262D01*
X57131Y34262D01*
X76738Y170500D02*
X76606Y170369D01*
Y170106D01*
X76738Y169975D01*
X76869D01*
X77000Y170106D01*
Y170369D01*
X77131Y170500D01*
X77262D01*
X77394Y170369D01*
Y170106D01*
X77262Y169975D01*
X77394Y170762D02*
Y171025D01*
Y170894D01*
X76606D01*
X76738Y170762D01*
X195075Y86344D02*
X194288D01*
Y86738D01*
X194419Y86869D01*
X194681D01*
X194812Y86738D01*
Y86344D01*
Y86606D02*
X195075Y86869D01*
X194288Y87656D02*
Y87131D01*
X194681D01*
X194550Y87394D01*
Y87525D01*
X194681Y87656D01*
X194943D01*
X195075Y87525D01*
Y87262D01*
X194943Y87131D01*
X195075Y100344D02*
X194288D01*
Y100738D01*
X194419Y100869D01*
X194681D01*
X194812Y100738D01*
Y100344D01*
Y100606D02*
X195075Y100869D01*
Y101525D02*
X194288D01*
X194681Y101131D01*
Y101656D01*
X195921Y116844D02*
X195134D01*
Y117238D01*
X195265Y117369D01*
X195528D01*
X195659Y117238D01*
Y116844D01*
Y117106D02*
X195921Y117369D01*
X195265Y117631D02*
X195134Y117762D01*
Y118025D01*
X195265Y118156D01*
X195396D01*
X195528Y118025D01*
Y117894D01*
Y118025D01*
X195659Y118156D01*
X195790D01*
X195921Y118025D01*
Y117762D01*
X195790Y117631D01*
X86344Y42106D02*
Y42894D01*
X86738D01*
X86869Y42762D01*
Y42500D01*
X86738Y42369D01*
X86344D01*
X86606D02*
X86869Y42106D01*
X87656D02*
X87131D01*
X87656Y42631D01*
Y42762D01*
X87525Y42894D01*
X87262D01*
X87131Y42762D01*
X115047Y127975D02*
X114260D01*
Y128369D01*
X114391Y128500D01*
X114654D01*
X114785Y128369D01*
Y127975D01*
Y128238D02*
X115047Y128500D01*
Y128762D02*
Y129025D01*
Y128894D01*
X114260D01*
X114391Y128762D01*
X206369Y165894D02*
X206106D01*
X206238D01*
Y165238D01*
X206106Y165106D01*
X205975D01*
X205844Y165238D01*
X207156Y165894D02*
X206894Y165762D01*
X206631Y165500D01*
Y165238D01*
X206762Y165106D01*
X207025D01*
X207156Y165238D01*
Y165369D01*
X207025Y165500D01*
X206631D01*
X96369Y30894D02*
X96106D01*
X96238D01*
Y30238D01*
X96106Y30106D01*
X95975D01*
X95844Y30238D01*
X97156Y30894D02*
X96631D01*
Y30500D01*
X96894Y30631D01*
X97025D01*
X97156Y30500D01*
Y30238D01*
X97025Y30106D01*
X96762D01*
X96631Y30238D01*
X216369Y125894D02*
X216106D01*
X216238D01*
Y125238D01*
X216106Y125106D01*
X215975D01*
X215844Y125238D01*
X217025Y125106D02*
Y125894D01*
X216631Y125500D01*
X217156D01*
X150125Y31087D02*
X149862D01*
X149994D01*
Y30431D01*
X149862Y30300D01*
X149731D01*
X149600Y30431D01*
X150387Y30956D02*
X150518Y31087D01*
X150781D01*
X150912Y30956D01*
Y30825D01*
X150781Y30694D01*
X150649D01*
X150781D01*
X150912Y30562D01*
Y30431D01*
X150781Y30300D01*
X150518D01*
X150387Y30431D01*
X869Y90894D02*
X606D01*
X738D01*
Y90238D01*
X606Y90106D01*
X475D01*
X344Y90238D01*
X1656Y90106D02*
X1131D01*
X1656Y90631D01*
Y90762D01*
X1525Y90894D01*
X1262D01*
X1131Y90762D01*
X-75Y139587D02*
X-338D01*
X-206D01*
Y138931D01*
X-338Y138800D01*
X-469D01*
X-600Y138931D01*
X187Y138800D02*
X450D01*
X318D01*
Y139587D01*
X187Y139456D01*
X79000Y131187D02*
X79262D01*
X79131D01*
Y130400D01*
X79000D01*
X79262D01*
X80181Y131056D02*
X80050Y131187D01*
X79787D01*
X79656Y131056D01*
Y130531D01*
X79787Y130400D01*
X80050D01*
X80181Y130531D01*
X80443Y130400D02*
X80705D01*
X80574D01*
Y131187D01*
X80443Y131056D01*
X193408Y108844D02*
X194195D01*
Y109238D01*
X194064Y109369D01*
X193539D01*
X193408Y109238D01*
Y108844D01*
X194064Y109631D02*
X194195Y109762D01*
Y110025D01*
X194064Y110156D01*
X193539D01*
X193408Y110025D01*
Y109762D01*
X193539Y109631D01*
X193670D01*
X193801Y109762D01*
Y110156D01*
X193106Y74344D02*
X193894D01*
Y74738D01*
X193762Y74869D01*
X193238D01*
X193106Y74738D01*
Y74344D01*
X193238Y75131D02*
X193106Y75262D01*
Y75525D01*
X193238Y75656D01*
X193369D01*
X193500Y75525D01*
X193631Y75656D01*
X193762D01*
X193894Y75525D01*
Y75262D01*
X193762Y75131D01*
X193631D01*
X193500Y75262D01*
X193369Y75131D01*
X193238D01*
X193500Y75262D02*
Y75525D01*
X193106Y94844D02*
X193894D01*
Y95238D01*
X193762Y95369D01*
X193238D01*
X193106Y95238D01*
Y94844D01*
Y95631D02*
Y96156D01*
X193238D01*
X193762Y95631D01*
X193894D01*
X194894Y127156D02*
X194106D01*
Y126762D01*
X194238Y126631D01*
X194762D01*
X194894Y126762D01*
Y127156D01*
Y125844D02*
X194762Y126106D01*
X194500Y126369D01*
X194238D01*
X194106Y126238D01*
Y125975D01*
X194238Y125844D01*
X194369D01*
X194500Y125975D01*
Y126369D01*
X58953Y76656D02*
X58166D01*
Y76262D01*
X58297Y76131D01*
X58821D01*
X58953Y76262D01*
Y76656D01*
Y75344D02*
Y75869D01*
X58559D01*
X58690Y75606D01*
Y75475D01*
X58559Y75344D01*
X58297D01*
X58166Y75475D01*
Y75738D01*
X58297Y75869D01*
X39606Y83844D02*
X40394D01*
Y84238D01*
X40262Y84369D01*
X39738D01*
X39606Y84238D01*
Y83844D01*
X40394Y85025D02*
X39606D01*
X40000Y84631D01*
Y85156D01*
X40100Y129287D02*
Y128500D01*
X40494D01*
X40625Y128631D01*
Y129156D01*
X40494Y129287D01*
X40100D01*
X40887Y129156D02*
X41018Y129287D01*
X41281D01*
X41412Y129156D01*
Y129025D01*
X41281Y128894D01*
X41150D01*
X41281D01*
X41412Y128762D01*
Y128631D01*
X41281Y128500D01*
X41018D01*
X40887Y128631D01*
X47000Y128187D02*
Y127400D01*
X47394D01*
X47525Y127531D01*
Y128056D01*
X47394Y128187D01*
X47000D01*
X48312Y127400D02*
X47787D01*
X48312Y127925D01*
Y128056D01*
X48181Y128187D01*
X47918D01*
X47787Y128056D01*
X71975Y107394D02*
Y106606D01*
X72369D01*
X72500Y106738D01*
Y107262D01*
X72369Y107394D01*
X71975D01*
X72762Y106606D02*
X73025D01*
X72894D01*
Y107394D01*
X72762Y107262D01*
X90554Y69226D02*
X90554Y69041D01*
X90740Y68855D01*
X90925D01*
X91296Y69226D01*
Y69412D01*
X91111Y69597D01*
X90925D01*
X90461Y70247D02*
X90833Y69876D01*
X90090D01*
X89998Y69783D01*
Y69597D01*
X90183Y69412D01*
X90369D01*
X89905Y70803D02*
X90276Y70432D01*
X89534D01*
X89441Y70340D01*
Y70154D01*
X89627Y69968D01*
X89812Y69968D01*
X91625Y103356D02*
X91494Y103487D01*
X91231D01*
X91100Y103356D01*
Y102831D01*
X91231Y102700D01*
X91494D01*
X91625Y102831D01*
X92412Y102700D02*
X91887D01*
X92412Y103225D01*
Y103356D01*
X92281Y103487D01*
X92018D01*
X91887Y103356D01*
X92674Y102700D02*
X92937D01*
X92805D01*
Y103487D01*
X92674Y103356D01*
X136975Y42762D02*
X136844Y42894D01*
X136582D01*
X136451Y42762D01*
Y42238D01*
X136582Y42106D01*
X136844D01*
X136975Y42238D01*
X137762Y42106D02*
X137238D01*
X137762Y42631D01*
Y42762D01*
X137631Y42894D01*
X137369D01*
X137238Y42762D01*
X138025D02*
X138156Y42894D01*
X138418D01*
X138549Y42762D01*
Y42238D01*
X138418Y42106D01*
X138156D01*
X138025Y42238D01*
Y42762D01*
X79580Y53041D02*
X79449Y52910D01*
Y52647D01*
X79580Y52516D01*
X80105D01*
X80236Y52647D01*
Y52910D01*
X80105Y53041D01*
X80236Y53303D02*
Y53566D01*
Y53434D01*
X79449D01*
X79580Y53303D01*
X80105Y53959D02*
X80236Y54090D01*
Y54353D01*
X80105Y54484D01*
X79580D01*
X79449Y54353D01*
Y54090D01*
X79580Y53959D01*
X79711D01*
X79843Y54090D01*
Y54484D01*
X57041Y92262D02*
X56910Y92394D01*
X56647D01*
X56516Y92262D01*
Y91738D01*
X56647Y91606D01*
X56910D01*
X57041Y91738D01*
X57303Y91606D02*
X57566D01*
X57434D01*
Y92394D01*
X57303Y92262D01*
X57959D02*
X58090Y92394D01*
X58353D01*
X58484Y92262D01*
Y92131D01*
X58353Y92000D01*
X58484Y91869D01*
Y91738D01*
X58353Y91606D01*
X58090D01*
X57959Y91738D01*
Y91869D01*
X58090Y92000D01*
X57959Y92131D01*
Y92262D01*
X58090Y92000D02*
X58353D01*
X112738Y115541D02*
X112606Y115410D01*
Y115147D01*
X112738Y115016D01*
X113262D01*
X113394Y115147D01*
Y115410D01*
X113262Y115541D01*
X113394Y115803D02*
Y116066D01*
Y115934D01*
X112606D01*
X112738Y115803D01*
X112606Y116459D02*
Y116984D01*
X112738D01*
X113262Y116459D01*
X113394D01*
X120238Y45541D02*
X120106Y45410D01*
Y45147D01*
X120238Y45016D01*
X120762D01*
X120894Y45147D01*
Y45410D01*
X120762Y45541D01*
X120894Y45803D02*
Y46066D01*
Y45934D01*
X120106D01*
X120238Y45803D01*
X120106Y46984D02*
X120238Y46722D01*
X120500Y46459D01*
X120762D01*
X120894Y46590D01*
Y46853D01*
X120762Y46984D01*
X120631D01*
X120500Y46853D01*
Y46459D01*
X100738Y97541D02*
X100606Y97410D01*
Y97147D01*
X100738Y97016D01*
X101262D01*
X101394Y97147D01*
Y97410D01*
X101262Y97541D01*
X101394Y97803D02*
Y98066D01*
Y97934D01*
X100606D01*
X100738Y97803D01*
X100606Y98984D02*
Y98459D01*
X101000D01*
X100869Y98722D01*
Y98853D01*
X101000Y98984D01*
X101262D01*
X101394Y98853D01*
Y98590D01*
X101262Y98459D01*
X165238Y99541D02*
X165106Y99410D01*
Y99147D01*
X165238Y99016D01*
X165762D01*
X165894Y99147D01*
Y99410D01*
X165762Y99541D01*
X165894Y99803D02*
Y100066D01*
Y99934D01*
X165106D01*
X165238Y99803D01*
X165894Y100853D02*
X165106D01*
X165500Y100459D01*
Y100984D01*
X103541Y61762D02*
X103410Y61894D01*
X103147D01*
X103016Y61762D01*
Y61238D01*
X103147Y61106D01*
X103410D01*
X103541Y61238D01*
X103803Y61106D02*
X104066D01*
X103934D01*
Y61894D01*
X103803Y61762D01*
X104459D02*
X104590Y61894D01*
X104853D01*
X104984Y61762D01*
Y61631D01*
X104853Y61500D01*
X104722D01*
X104853D01*
X104984Y61369D01*
Y61238D01*
X104853Y61106D01*
X104590D01*
X104459Y61238D01*
X115238Y110541D02*
X115106Y110410D01*
Y110147D01*
X115238Y110016D01*
X115762D01*
X115894Y110147D01*
Y110410D01*
X115762Y110541D01*
X115894Y110803D02*
Y111066D01*
Y110934D01*
X115106D01*
X115238Y110803D01*
X115894Y111984D02*
Y111459D01*
X115369Y111984D01*
X115238D01*
X115106Y111853D01*
Y111590D01*
X115238Y111459D01*
X163762Y45828D02*
X163894Y45959D01*
Y46222D01*
X163762Y46353D01*
X163238D01*
X163106Y46222D01*
Y45959D01*
X163238Y45828D01*
X163106Y45566D02*
Y45303D01*
Y45434D01*
X163894D01*
X163762Y45566D01*
X163106Y44910D02*
Y44647D01*
Y44778D01*
X163894D01*
X163762Y44910D01*
X171041Y132262D02*
X170910Y132394D01*
X170647D01*
X170516Y132262D01*
Y131738D01*
X170647Y131606D01*
X170910D01*
X171041Y131738D01*
X171303Y131606D02*
X171566D01*
X171434D01*
Y132394D01*
X171303Y132262D01*
X171959D02*
X172090Y132394D01*
X172353D01*
X172484Y132262D01*
Y131738D01*
X172353Y131606D01*
X172090D01*
X171959Y131738D01*
Y132262D01*
X178369D02*
X178238Y132394D01*
X177975D01*
X177844Y132262D01*
Y131738D01*
X177975Y131606D01*
X178238D01*
X178369Y131738D01*
X178631D02*
X178762Y131606D01*
X179025D01*
X179156Y131738D01*
Y132262D01*
X179025Y132394D01*
X178762D01*
X178631Y132262D01*
Y132131D01*
X178762Y132000D01*
X179156D01*
X188369Y67420D02*
X188238Y67551D01*
X187975D01*
X187844Y67420D01*
Y66895D01*
X187975Y66764D01*
X188238D01*
X188369Y66895D01*
X188631Y67420D02*
X188762Y67551D01*
X189025D01*
X189156Y67420D01*
Y67289D01*
X189025Y67158D01*
X189156Y67026D01*
Y66895D01*
X189025Y66764D01*
X188762D01*
X188631Y66895D01*
Y67026D01*
X188762Y67158D01*
X188631Y67289D01*
Y67420D01*
X188762Y67158D02*
X189025D01*
X217369Y58105D02*
X217238Y58236D01*
X216975D01*
X216844Y58105D01*
Y57580D01*
X216975Y57449D01*
X217238D01*
X217369Y57580D01*
X217631Y58236D02*
X218156D01*
Y58105D01*
X217631Y57580D01*
Y57449D01*
X93738Y106369D02*
X93606Y106238D01*
Y105975D01*
X93738Y105844D01*
X94262D01*
X94394Y105975D01*
Y106238D01*
X94262Y106369D01*
X93606Y107156D02*
X93738Y106894D01*
X94000Y106631D01*
X94262D01*
X94394Y106762D01*
Y107025D01*
X94262Y107156D01*
X94131D01*
X94000Y107025D01*
Y106631D01*
X100131Y112738D02*
X100262Y112606D01*
X100525D01*
X100656Y112738D01*
Y113262D01*
X100525Y113394D01*
X100262D01*
X100131Y113262D01*
X99344Y112606D02*
X99869D01*
Y113000D01*
X99606Y112869D01*
X99475D01*
X99344Y113000D01*
Y113262D01*
X99475Y113394D01*
X99738D01*
X99869Y113262D01*
X61080Y128869D02*
X60949Y128738D01*
Y128475D01*
X61080Y128344D01*
X61605D01*
X61736Y128475D01*
Y128738D01*
X61605Y128869D01*
X61736Y129525D02*
X60949D01*
X61343Y129131D01*
Y129656D01*
X210238Y60869D02*
X210106Y60738D01*
Y60475D01*
X210238Y60344D01*
X210762D01*
X210894Y60475D01*
Y60738D01*
X210762Y60869D01*
X210238Y61131D02*
X210106Y61262D01*
Y61525D01*
X210238Y61656D01*
X210369D01*
X210500Y61525D01*
Y61394D01*
Y61525D01*
X210631Y61656D01*
X210762D01*
X210894Y61525D01*
Y61262D01*
X210762Y61131D01*
X220869Y42262D02*
X220738Y42394D01*
X220475D01*
X220344Y42262D01*
Y41738D01*
X220475Y41606D01*
X220738D01*
X220869Y41738D01*
X221656Y41606D02*
X221131D01*
X221656Y42131D01*
Y42262D01*
X221525Y42394D01*
X221262D01*
X221131Y42262D01*
X196000Y68762D02*
X195869Y68894D01*
X195606D01*
X195475Y68762D01*
Y68238D01*
X195606Y68106D01*
X195869D01*
X196000Y68238D01*
X196262Y68106D02*
X196525D01*
X196394D01*
Y68894D01*
X196262Y68762D01*
D13*
X82177Y126988D02*
G03*
X82177Y126988I-492J0D01*
G01*
D14*
X169744Y124500D02*
X175256D01*
X169744Y118988D02*
X170925D01*
X169744D02*
Y130012D01*
X170925D01*
X174075D02*
X175256D01*
Y118988D02*
Y130012D01*
X174075Y118988D02*
X175256D01*
X42000Y85150D02*
X42500Y84650D01*
X42000Y85150D02*
X56000D01*
Y84067D02*
Y85150D01*
X42500Y83000D02*
Y84650D01*
X42000Y83000D02*
X42500D01*
X42000D02*
Y85150D01*
Y78850D02*
X42500Y79350D01*
X42000Y78850D02*
X56000D01*
Y79933D01*
X42500Y79350D02*
Y81000D01*
X42000D02*
X42500D01*
X42000Y78850D02*
Y81000D01*
X49000Y87744D02*
Y93256D01*
X43488Y92075D02*
Y93256D01*
X54512D01*
Y92075D02*
Y93256D01*
Y87744D02*
Y88925D01*
X43488Y87744D02*
X54512D01*
X43488D02*
Y88925D01*
X187744Y65169D02*
X188925D01*
X187744Y54146D02*
Y65169D01*
Y54146D02*
X188925D01*
X192075D02*
X193256D01*
Y65169D01*
X192075D02*
X193256D01*
X187744Y59658D02*
X193256D01*
X128000Y44744D02*
Y50256D01*
X122488Y49075D02*
Y50256D01*
X133512D01*
Y49075D02*
Y50256D01*
Y44744D02*
Y45925D01*
X122488Y44744D02*
X133512D01*
X122488D02*
Y45925D01*
X108500Y97244D02*
Y102756D01*
X102988Y101575D02*
Y102756D01*
X114012D01*
Y101575D02*
Y102756D01*
Y97244D02*
Y98425D01*
X102988Y97244D02*
X114012D01*
X102988D02*
Y98425D01*
X170500Y91744D02*
Y97256D01*
X176012Y91744D02*
Y92925D01*
X164988Y91744D02*
X176012D01*
X164988D02*
Y92925D01*
Y96075D02*
Y97256D01*
X176012D01*
Y96075D02*
Y97256D01*
X103244Y70000D02*
X108756D01*
X107575Y75512D02*
X108756D01*
Y64488D02*
Y75512D01*
X107575Y64488D02*
X108756D01*
X103244D02*
X104425D01*
X103244D02*
Y75512D01*
X104425D01*
X123000Y106744D02*
Y112256D01*
X128512Y106744D02*
Y107925D01*
X117488Y106744D02*
X128512D01*
X117488D02*
Y107925D01*
Y111075D02*
Y112256D01*
X128512D01*
Y111075D02*
Y112256D01*
X210000Y121350D02*
X210500Y120850D01*
X196500D02*
X210500D01*
X196500D02*
Y121933D01*
X210000Y121350D02*
Y123000D01*
X210500D01*
Y120850D02*
Y123000D01*
X210000Y126650D02*
X210500Y127150D01*
X196500D02*
X210500D01*
X196500Y126067D02*
Y127150D01*
X210000Y125000D02*
Y126650D01*
Y125000D02*
X210500D01*
Y127150D01*
X142342Y44744D02*
Y50256D01*
X147854Y44744D02*
Y45925D01*
X136831Y44744D02*
X147854D01*
X136831D02*
Y45925D01*
Y49075D02*
Y50256D01*
X147854D01*
Y49075D02*
Y50256D01*
X156000Y44744D02*
Y50256D01*
X150488Y49075D02*
Y50256D01*
X161512D01*
Y49075D02*
Y50256D01*
Y44744D02*
Y45925D01*
X150488Y44744D02*
X161512D01*
X150488D02*
Y45925D01*
X86638Y50500D02*
X91362D01*
Y44594D02*
Y56406D01*
X90606Y44594D02*
X91362D01*
X90606Y56406D02*
X91362D01*
X86638D02*
X87394D01*
X86638Y44594D02*
Y56406D01*
Y44594D02*
X87394D01*
X72342Y51244D02*
Y56756D01*
X66831Y55575D02*
Y56756D01*
X77854D01*
Y55575D02*
Y56756D01*
Y51244D02*
Y52425D01*
X66831Y51244D02*
X77854D01*
X66831D02*
Y52425D01*
X177244Y124500D02*
X182756D01*
X177244Y118988D02*
X178425D01*
X177244D02*
Y130012D01*
X178425D01*
X181575D02*
X182756D01*
Y118988D02*
Y130012D01*
X181575Y118988D02*
X182756D01*
X96744Y120500D02*
X102256D01*
X96744Y114988D02*
X97925D01*
X96744D02*
Y126012D01*
X97925D01*
X101075D02*
X102256D01*
Y114988D02*
Y126012D01*
X101075Y114988D02*
X102256D01*
X69342Y126244D02*
Y131756D01*
X63831Y130575D02*
Y131756D01*
X74854D01*
Y130575D02*
Y131756D01*
Y126244D02*
Y127425D01*
X63831Y126244D02*
X74854D01*
X63831D02*
Y127425D01*
X203681Y113638D02*
Y118362D01*
X197776D02*
X209587D01*
Y117606D02*
Y118362D01*
X197776Y117606D02*
Y118362D01*
Y113638D02*
Y114394D01*
Y113638D02*
X209587D01*
Y114394D01*
X209181Y105850D02*
X209681Y105350D01*
X195681D02*
X209681D01*
X195681D02*
Y106433D01*
X209181Y105850D02*
Y107500D01*
X209681D01*
Y105350D02*
Y107500D01*
X209181Y111150D02*
X209681Y111650D01*
X195681D02*
X209681D01*
X195681Y110567D02*
Y111650D01*
X209181Y109500D02*
Y111150D01*
Y109500D02*
X209681D01*
Y111650D01*
X203181Y98138D02*
Y102862D01*
X197276D02*
X209087D01*
Y102106D02*
Y102862D01*
X197276Y102106D02*
Y102862D01*
Y98138D02*
Y98894D01*
Y98138D02*
X209087D01*
Y98894D01*
X209000Y90350D02*
X209500Y89850D01*
X195500D02*
X209500D01*
X195500D02*
Y90933D01*
X209000Y90350D02*
Y92000D01*
X209500D01*
Y89850D02*
Y92000D01*
X209000Y95650D02*
X209500Y96150D01*
X195500D02*
X209500D01*
X195500Y95067D02*
Y96150D01*
X209000Y94000D02*
Y95650D01*
Y94000D02*
X209500D01*
Y96150D01*
X202681Y82638D02*
Y87362D01*
X196776D02*
X208587D01*
Y86606D02*
Y87362D01*
X196776Y86606D02*
Y87362D01*
Y82638D02*
Y83394D01*
Y82638D02*
X208587D01*
Y83394D01*
X209000Y74850D02*
X209500Y74350D01*
X195500D02*
X209500D01*
X195500D02*
Y75433D01*
X209000Y74850D02*
Y76500D01*
X209500D01*
Y74350D02*
Y76500D01*
X209000Y80150D02*
X209500Y80650D01*
X195500D02*
X209500D01*
X195500Y79567D02*
Y80650D01*
X209000Y78500D02*
Y80150D01*
Y78500D02*
X209500D01*
Y80650D01*
X213244Y37843D02*
X218756D01*
X217575Y43354D02*
X218756D01*
Y32331D02*
Y43354D01*
X217575Y32331D02*
X218756D01*
X213244D02*
X214425D01*
X213244D02*
Y43354D01*
X214425D01*
X201000Y60744D02*
Y66256D01*
X195488Y65075D02*
Y66256D01*
X206512D01*
Y65075D02*
Y66256D01*
Y60744D02*
Y61925D01*
X195488Y60744D02*
X206512D01*
X195488D02*
Y61925D01*
X215244Y50500D02*
X220756D01*
X219575Y56012D02*
X220756D01*
Y44988D02*
Y56012D01*
X219575Y44988D02*
X220756D01*
X215244D02*
X216425D01*
X215244D02*
Y56012D01*
X216425D01*
X123000Y124638D02*
Y129362D01*
X117095Y124638D02*
X128905D01*
X117095D02*
Y125394D01*
X128905Y124638D02*
Y125394D01*
Y128606D02*
Y129362D01*
X117095D02*
X128905D01*
X117095Y128606D02*
Y129362D01*
X95051Y92051D02*
X98949Y95949D01*
X94216Y99011D02*
X95051Y99846D01*
X102846Y92051D01*
X102011Y91216D02*
X102846Y92051D01*
X98949Y88154D02*
X99784Y88989D01*
X91154Y95949D02*
X98949Y88154D01*
X91154Y95949D02*
X91989Y96784D01*
X94430Y76328D02*
X98328Y72430D01*
X90533D02*
X91368Y71595D01*
X90533Y72430D02*
X98328Y80225D01*
X99163Y79390D01*
X101390Y77163D02*
X102225Y76328D01*
X94430Y68533D02*
X102225Y76328D01*
X93595Y69368D02*
X94430Y68533D01*
X86500Y105744D02*
Y111256D01*
X80988Y110075D02*
Y111256D01*
X92012D01*
Y110075D02*
Y111256D01*
Y105744D02*
Y106925D01*
X80988Y105744D02*
X92012D01*
X80988D02*
Y106925D01*
X291Y54343D02*
Y84658D01*
X6394D01*
X17811D02*
X28047D01*
X36512Y77571D02*
Y82099D01*
Y56901D02*
Y61429D01*
X17811Y54343D02*
X28047D01*
X291D02*
X6394D01*
X44000Y125799D02*
X45000D01*
Y113000D02*
Y125799D01*
X43000Y113201D02*
X45000D01*
X43000Y112500D02*
Y113201D01*
Y112500D02*
X45000D01*
Y113201D01*
X40000Y112500D02*
Y113201D01*
Y112500D02*
X42000D01*
Y113201D01*
X40000D02*
X42000D01*
X40000Y113000D02*
Y125799D01*
X41000D01*
D15*
X44000Y112850D02*
D03*
D16*
X41070Y112807D02*
D03*
M02*
