M48
;Layer_Color=9474304
;FILE_FORMAT=2:5
INCH,TZ
;TYPE=PLATED
T01F00S00C0.00787
T02F00S00C0.01378
T03F00S00C0.04331
T04F00S00C0.04724
T05F00S00C0.05512
T06F00S00C0.05906
T07F00S00C0.07087
T08F00S00C0.29921
;TYPE=NON_PLATED
T09F00S00C0.03543
%
T01
X63500Y60500
X97000Y104500
X140500Y110500
X184000Y102500
X185000Y89000
X181000Y89500
X178500Y92000
X188000Y86500
X191000Y84000
X190000Y68500
X179500Y73000
X180500Y77500
X195000Y115000
T02
X125500Y41000
X168000Y52500
X177500Y54000
X184000Y40000
X187500Y41000
X198500Y28000
X224000Y53500
X212500Y57000
X174000Y57500
X169500
X65500Y67500
Y74500
T03
X156500Y11500
Y21500
X166500
X176500
X186500
Y11500
X176500
X166500
T04
X101500Y17000
X111500
X121500
X131500
X226000Y78500
Y88500
Y98500
Y108500
Y118500
X195000Y155000
X185000
X175000
X165000
T05
X31386Y112110
Y125890
T06
X82394Y150701
Y163299
X144598
Y150701
T07
X94992Y157000
X113496
X132000
T08
X27559Y23000
X236221
Y165354
X27559
T09
X23520Y60839
Y78161
M30
