G04*
G04 #@! TF.GenerationSoftware,Altium Limited,Altium Designer,24.10.1 (45)*
G04*
G04 Layer_Color=255*
%FSLAX25Y25*%
%MOIN*%
G70*
G04*
G04 #@! TF.SameCoordinates,545B6B6C-97C6-4FAA-9EA4-23BCF6F6AA29*
G04*
G04*
G04 #@! TF.FilePolarity,Positive*
G04*
G01*
G75*
G04:AMPARAMS|DCode=17|XSize=55.12mil|YSize=82.68mil|CornerRadius=13.78mil|HoleSize=0mil|Usage=FLASHONLY|Rotation=0.000|XOffset=0mil|YOffset=0mil|HoleType=Round|Shape=RoundedRectangle|*
%AMROUNDEDRECTD17*
21,1,0.05512,0.05512,0,0,0.0*
21,1,0.02756,0.08268,0,0,0.0*
1,1,0.02756,0.01378,-0.02756*
1,1,0.02756,-0.01378,-0.02756*
1,1,0.02756,-0.01378,0.02756*
1,1,0.02756,0.01378,0.02756*
%
%ADD17ROUNDEDRECTD17*%
%ADD18R,0.09843X0.06693*%
%ADD19R,0.03937X0.03543*%
%ADD20R,0.02461X0.03268*%
%ADD21R,0.03543X0.03937*%
%ADD22R,0.03937X0.04724*%
%ADD23R,0.01181X0.05906*%
%ADD24R,0.05906X0.01181*%
%ADD25R,0.03150X0.03543*%
%ADD26R,0.01968X0.01378*%
%ADD27R,0.01102X0.03110*%
%ADD28R,0.03110X0.01102*%
%ADD29R,0.03543X0.03150*%
G04:AMPARAMS|DCode=30|XSize=39.37mil|YSize=35.43mil|CornerRadius=0mil|HoleSize=0mil|Usage=FLASHONLY|Rotation=45.000|XOffset=0mil|YOffset=0mil|HoleType=Round|Shape=Rectangle|*
%AMROTATEDRECTD30*
4,1,4,-0.00139,-0.02645,-0.02645,-0.00139,0.00139,0.02645,0.02645,0.00139,-0.00139,-0.02645,0.0*
%
%ADD30ROTATEDRECTD30*%

G04:AMPARAMS|DCode=31|XSize=47.24mil|YSize=55.12mil|CornerRadius=0mil|HoleSize=0mil|Usage=FLASHONLY|Rotation=315.000|XOffset=0mil|YOffset=0mil|HoleType=Round|Shape=Rectangle|*
%AMROTATEDRECTD31*
4,1,4,-0.03619,-0.00278,0.00278,0.03619,0.03619,0.00278,-0.00278,-0.03619,-0.03619,-0.00278,0.0*
%
%ADD31ROTATEDRECTD31*%

G04:AMPARAMS|DCode=32|XSize=39.37mil|YSize=35.43mil|CornerRadius=0mil|HoleSize=0mil|Usage=FLASHONLY|Rotation=135.000|XOffset=0mil|YOffset=0mil|HoleType=Round|Shape=Rectangle|*
%AMROTATEDRECTD32*
4,1,4,0.02645,-0.00139,0.00139,-0.02645,-0.02645,0.00139,-0.00139,0.02645,0.02645,-0.00139,0.0*
%
%ADD32ROTATEDRECTD32*%

%ADD33R,0.09843X0.01968*%
%ADD34R,0.09843X0.07874*%
%ADD35R,0.04724X0.02362*%
%ADD36R,0.03937X0.02165*%
%ADD37R,0.01968X0.03150*%
%ADD72O,0.07874X0.11811*%
%ADD73O,0.11811X0.07874*%
%ADD74C,0.07874*%
%ADD75C,0.11811*%
%ADD76C,0.09843*%
%ADD77C,0.03543*%
%ADD78C,0.03937*%
%ADD79C,0.08661*%
D17*
X80358Y9587D02*
D03*
X62642D02*
D03*
Y45413D02*
D03*
X80358D02*
D03*
D18*
X47500Y102000D02*
D03*
X63248D02*
D03*
X69374Y118000D02*
D03*
X53626D02*
D03*
D19*
X172500Y127157D02*
D03*
Y121843D02*
D03*
X190500Y62315D02*
D03*
Y57000D02*
D03*
X106000Y67343D02*
D03*
Y72658D02*
D03*
X180000Y127157D02*
D03*
Y121843D02*
D03*
X99500Y123158D02*
D03*
Y117842D02*
D03*
X216000Y35185D02*
D03*
Y40500D02*
D03*
X218000Y47842D02*
D03*
Y53158D02*
D03*
D20*
X53380Y82000D02*
D03*
X44620D02*
D03*
X199120Y124000D02*
D03*
X207880D02*
D03*
X198301Y108500D02*
D03*
X207061D02*
D03*
X198120Y93000D02*
D03*
X206880D02*
D03*
X198120Y77500D02*
D03*
X206880D02*
D03*
D21*
X51657Y90500D02*
D03*
X46343D02*
D03*
X130657Y47500D02*
D03*
X125343D02*
D03*
X111158Y100000D02*
D03*
X105842D02*
D03*
X167842Y94500D02*
D03*
X173158D02*
D03*
X120343Y109500D02*
D03*
X125657D02*
D03*
X139685Y47500D02*
D03*
X145000D02*
D03*
X158658D02*
D03*
X153342D02*
D03*
X75000Y54000D02*
D03*
X69685D02*
D03*
X72000Y129000D02*
D03*
X66685D02*
D03*
X203658Y63500D02*
D03*
X198343D02*
D03*
X89157Y108500D02*
D03*
X83842D02*
D03*
D22*
X119063Y117500D02*
D03*
X126937D02*
D03*
X205437Y56000D02*
D03*
X197563D02*
D03*
D23*
X122315Y100882D02*
D03*
X124284D02*
D03*
X126252D02*
D03*
X128220D02*
D03*
X130189D02*
D03*
X132158D02*
D03*
X134126D02*
D03*
X136094D02*
D03*
X138063D02*
D03*
X140032D02*
D03*
X142000D02*
D03*
X143968D02*
D03*
X145937D02*
D03*
X147906D02*
D03*
X149874D02*
D03*
X151842D02*
D03*
Y56000D02*
D03*
X149874D02*
D03*
X147906D02*
D03*
X145937D02*
D03*
X143968D02*
D03*
X142000D02*
D03*
X140032D02*
D03*
X138063D02*
D03*
X136094D02*
D03*
X134126D02*
D03*
X132158D02*
D03*
X130189D02*
D03*
X128220D02*
D03*
X126252D02*
D03*
X124284D02*
D03*
X122315D02*
D03*
D24*
X159520Y93205D02*
D03*
Y91236D02*
D03*
Y89268D02*
D03*
Y87299D02*
D03*
Y85331D02*
D03*
Y83362D02*
D03*
Y81394D02*
D03*
Y79425D02*
D03*
Y77457D02*
D03*
Y75488D02*
D03*
Y73520D02*
D03*
Y71551D02*
D03*
Y69583D02*
D03*
Y67614D02*
D03*
Y65646D02*
D03*
Y63677D02*
D03*
X114638D02*
D03*
Y65646D02*
D03*
Y67614D02*
D03*
Y69583D02*
D03*
Y71551D02*
D03*
Y73520D02*
D03*
Y75488D02*
D03*
Y77457D02*
D03*
Y79425D02*
D03*
Y81394D02*
D03*
Y83362D02*
D03*
Y85331D02*
D03*
Y87299D02*
D03*
Y89268D02*
D03*
Y91236D02*
D03*
Y93205D02*
D03*
D25*
X89000Y53847D02*
D03*
Y47153D02*
D03*
D26*
X159850Y123721D02*
D03*
X166150D02*
D03*
X159850Y126279D02*
D03*
X166150D02*
D03*
Y121161D02*
D03*
X159850D02*
D03*
Y128839D02*
D03*
X166150D02*
D03*
D27*
X196579Y33244D02*
D03*
X198547D02*
D03*
X200516D02*
D03*
X202484D02*
D03*
X204453D02*
D03*
X206421D02*
D03*
Y48756D02*
D03*
X204453D02*
D03*
X202484D02*
D03*
X200516D02*
D03*
X198547D02*
D03*
X196579D02*
D03*
D28*
X209256Y36079D02*
D03*
Y38047D02*
D03*
Y40016D02*
D03*
Y41984D02*
D03*
Y43953D02*
D03*
Y45921D02*
D03*
X193744D02*
D03*
Y43953D02*
D03*
Y41984D02*
D03*
Y40016D02*
D03*
Y38047D02*
D03*
Y36079D02*
D03*
D29*
X200335Y116000D02*
D03*
X207028D02*
D03*
X199835Y100500D02*
D03*
X206528D02*
D03*
X199335Y85000D02*
D03*
X206028D02*
D03*
X126347Y127000D02*
D03*
X119653D02*
D03*
D30*
X98879Y92121D02*
D03*
X95121Y95879D02*
D03*
D31*
X87304Y78071D02*
D03*
X82571Y82804D02*
D03*
X93429Y84196D02*
D03*
X88696Y88929D02*
D03*
D32*
X98258Y76258D02*
D03*
X94500Y72500D02*
D03*
D33*
X33756Y66350D02*
D03*
Y72650D02*
D03*
Y69500D02*
D03*
Y63201D02*
D03*
Y75799D02*
D03*
D34*
Y52177D02*
D03*
Y86823D02*
D03*
X12102Y52177D02*
D03*
Y86823D02*
D03*
D35*
X44618Y74740D02*
D03*
Y71000D02*
D03*
Y67260D02*
D03*
X54500Y74740D02*
D03*
Y71000D02*
D03*
Y67260D02*
D03*
D36*
X92315Y123740D02*
D03*
Y116260D02*
D03*
X81685D02*
D03*
Y120000D02*
D03*
Y123740D02*
D03*
D37*
X42500Y115957D02*
D03*
Y123043D02*
D03*
D72*
X121500Y17000D02*
D03*
X101500D02*
D03*
X131500D02*
D03*
X111500D02*
D03*
X175000Y155000D02*
D03*
X195000D02*
D03*
X165000D02*
D03*
X185000D02*
D03*
D73*
X226000Y88500D02*
D03*
Y108500D02*
D03*
Y78500D02*
D03*
Y118500D02*
D03*
Y98500D02*
D03*
D74*
X156500Y21500D02*
D03*
X166500D02*
D03*
X176500D02*
D03*
X186500D02*
D03*
Y11500D02*
D03*
X176500D02*
D03*
X166500D02*
D03*
X156500D02*
D03*
D75*
X94992Y157000D02*
D03*
X113496D02*
D03*
X132000D02*
D03*
D76*
X82394Y150701D02*
D03*
Y163299D02*
D03*
X144598Y150701D02*
D03*
Y163299D02*
D03*
D77*
X23520Y60839D02*
D03*
Y78161D02*
D03*
D78*
X236221Y23000D02*
D03*
X27559D02*
D03*
Y165354D02*
D03*
X236221D02*
D03*
D79*
X31386Y112110D02*
D03*
Y125890D02*
D03*
M02*
