G04*
G04 #@! TF.GenerationSoftware,Altium Limited,Altium Designer,24.10.1 (45)*
G04*
G04 Layer_Color=128*
%FSLAX25Y25*%
%MOIN*%
G70*
G04*
G04 #@! TF.SameCoordinates,545B6B6C-97C6-4FAA-9EA4-23BCF6F6AA29*
G04*
G04*
G04 #@! TF.FilePolarity,Positive*
G04*
G01*
G75*
%ADD10C,0.00500*%
D10*
X119138Y17000D02*
X123862D01*
X121500Y14638D02*
Y19362D01*
X99138Y17000D02*
X103862D01*
X101500Y14638D02*
Y19362D01*
X129138Y17000D02*
X133862D01*
X131500Y14638D02*
Y19362D01*
X109138Y17000D02*
X113862D01*
X111500Y14638D02*
Y19362D01*
X223638Y88500D02*
X228362D01*
X226000Y86138D02*
Y90862D01*
X223638Y108500D02*
X228362D01*
X226000Y106138D02*
Y110862D01*
X223638Y78500D02*
X228362D01*
X226000Y76138D02*
Y80862D01*
X223638Y118500D02*
X228362D01*
X226000Y116138D02*
Y120862D01*
X223638Y98500D02*
X228362D01*
X226000Y96138D02*
Y100862D01*
X154335Y21500D02*
X158665D01*
X156500Y19335D02*
Y23665D01*
X164335Y21500D02*
X168665D01*
X166500Y19335D02*
Y23665D01*
X174335Y21500D02*
X178665D01*
X176500Y19335D02*
Y23665D01*
X184335Y21500D02*
X188665D01*
X186500Y19335D02*
Y23665D01*
X184335Y11500D02*
X188665D01*
X186500Y9335D02*
Y13665D01*
X174335Y11500D02*
X178665D01*
X176500Y9335D02*
Y13665D01*
X164335Y11500D02*
X168665D01*
X166500Y9335D02*
Y13665D01*
X154335Y11500D02*
X158665D01*
X156500Y9335D02*
Y13665D01*
X172638Y155000D02*
X177362D01*
X175000Y152638D02*
Y157362D01*
X192638Y155000D02*
X197362D01*
X195000Y152638D02*
Y157362D01*
X162638Y155000D02*
X167362D01*
X165000Y152638D02*
Y157362D01*
X182638Y155000D02*
X187362D01*
X185000Y152638D02*
Y157362D01*
X91449Y157000D02*
X98535D01*
X94992Y153457D02*
Y160543D01*
X109953Y157000D02*
X117039D01*
X113496Y153457D02*
Y160543D01*
X128457Y157000D02*
X135543D01*
X132000Y153457D02*
Y160543D01*
X79441Y150701D02*
X85347D01*
X82394Y147748D02*
Y153654D01*
X79441Y163299D02*
X85347D01*
X82394Y160346D02*
Y166252D01*
X141646Y150701D02*
X147551D01*
X144598Y147748D02*
Y153654D01*
X141646Y163299D02*
X147551D01*
X144598Y160346D02*
Y166252D01*
X21748Y60839D02*
X25291D01*
X23520Y59067D02*
Y62610D01*
X21748Y78161D02*
X25291D01*
X23520Y76390D02*
Y79933D01*
X221260Y23000D02*
X251181D01*
X236221Y8039D02*
Y37961D01*
X12598Y23000D02*
X42520D01*
X27559Y8039D02*
Y37961D01*
X12598Y165354D02*
X42520D01*
X27559Y150394D02*
Y180315D01*
X221260Y165354D02*
X251181D01*
X236221Y150394D02*
Y180315D01*
X28630Y112110D02*
X34142D01*
X31386Y109354D02*
Y114866D01*
X28630Y125890D02*
X34142D01*
X31386Y123134D02*
Y128646D01*
X223311Y53500D02*
X224689D01*
X224000Y52811D02*
Y54189D01*
X197811Y28000D02*
X199189D01*
X198500Y27311D02*
Y28689D01*
X124811Y41000D02*
X126189D01*
X125500Y40311D02*
Y41689D01*
X63106Y60500D02*
X63894D01*
X63500Y60106D02*
Y60894D01*
X96606Y104500D02*
X97394D01*
X97000Y104106D02*
Y104894D01*
X64811Y67500D02*
X66189D01*
X65500Y66811D02*
Y68189D01*
X64811Y74500D02*
X66189D01*
X65500Y73811D02*
Y75189D01*
X140106Y110500D02*
X140894D01*
X140500Y110106D02*
Y110894D01*
X183606Y102500D02*
X184394D01*
X184000Y102106D02*
Y102894D01*
X184606Y89000D02*
X185394D01*
X185000Y88606D02*
Y89394D01*
X194606Y115000D02*
X195394D01*
X195000Y114606D02*
Y115394D01*
X178106Y92000D02*
X178894D01*
X178500Y91606D02*
Y92394D01*
X190606Y84000D02*
X191394D01*
X191000Y83606D02*
Y84394D01*
X180606Y89500D02*
X181394D01*
X181000Y89106D02*
Y89894D01*
X187606Y86500D02*
X188394D01*
X188000Y86106D02*
Y86894D01*
X168811Y57500D02*
X170189D01*
X169500Y56811D02*
Y58189D01*
X176811Y54000D02*
X178189D01*
X177500Y53311D02*
Y54689D01*
X173311Y57500D02*
X174689D01*
X174000Y56811D02*
Y58189D01*
X167311Y52500D02*
X168689D01*
X168000Y51811D02*
Y53189D01*
X189606Y68500D02*
X190394D01*
X190000Y68106D02*
Y68894D01*
X179106Y73000D02*
X179894D01*
X179500Y72606D02*
Y73394D01*
X180106Y77500D02*
X180894D01*
X180500Y77106D02*
Y77894D01*
X183311Y40000D02*
X184689D01*
X184000Y39311D02*
Y40689D01*
X186811Y41000D02*
X188189D01*
X187500Y40311D02*
Y41689D01*
X211811Y57000D02*
X213189D01*
X212500Y56311D02*
Y57689D01*
M02*
